<svg width="46" height="68" viewBox="0 0 46 68" fill="none" xmlns="http://www.w3.org/2000/svg">
<mask id="mask0_371_56" style="mask-type:luminance" maskUnits="userSpaceOnUse" x="0" y="0" width="46" height="68">
<path d="M0.907715 0.626343H45.427V67.3919H0.907715V0.626343Z" fill="white"/>
</mask>
<g mask="url(#mask0_371_56)">
<path d="M12.0394 67.3918C18.1819 67.3918 23.1669 62.4067 23.1669 56.2643V45.1365H12.0394C5.897 45.1365 0.911621 50.1219 0.911621 56.2643C0.911621 62.4067 5.897 67.3918 12.0394 67.3918Z" fill="#0ACF83"/>
<path d="M0.911621 34.0091C0.911621 27.8666 5.897 22.8816 12.0394 22.8816H23.1669V45.1365H12.0394C5.897 45.1365 0.911621 40.1515 0.911621 34.0091Z" fill="#A259FF"/>
<path d="M0.911621 11.7537C0.911621 5.61127 5.897 0.626221 12.0394 0.626221H23.1669V22.8815H12.0394C5.897 22.8815 0.911621 17.8961 0.911621 11.7537Z" fill="#F24E1E"/>
<path d="M23.1665 0.626221H34.294C40.4364 0.626221 45.4218 5.61127 45.4218 11.7537C45.4218 17.8961 40.4364 22.8815 34.294 22.8815H23.1665V0.626221Z" fill="#FF7262"/>
<path d="M45.4218 34.0091C45.4218 40.1515 40.4364 45.1365 34.294 45.1365C28.1516 45.1365 23.1665 40.1515 23.1665 34.0091C23.1665 27.8666 28.1516 22.8816 34.294 22.8816C40.4364 22.8816 45.4218 27.8666 45.4218 34.0091Z" fill="#1ABCFE"/>
</g>
</svg>
