<svg width="37" height="33" viewBox="0 0 37 33" fill="none" xmlns="http://www.w3.org/2000/svg">
<path d="M16.6524 31.4718C16.7612 31.5517 16.8763 31.6286 16.9928 31.7015C17.6674 32.1228 18.4703 32.2567 19.2656 32.2567C19.7302 32.2567 20.2056 32.2256 20.6174 32.0105C21.765 31.4111 22.56 30.0949 22.8596 29.3858C22.8708 29.3594 22.8685 29.3301 22.8543 29.3052L16.5279 18.2062C16.5061 18.168 16.5064 18.121 16.5287 18.083L20.5278 11.2736C20.576 11.1916 20.5169 11.0882 20.4217 11.0882H12.4179C12.3749 11.0882 12.3349 11.0657 12.3126 11.0289L9.88556 7.01895C9.83592 6.93693 9.89498 6.83214 9.99086 6.83214H23.0295C23.0736 6.83214 23.1143 6.80856 23.1362 6.77031L26.9151 0.184332C26.9622 0.10228 26.9029 0 26.8083 0H7.92323C5.29981 0 2.06944 0.231615 1.14842 2.68806C0.345828 4.29324 1.61304 6.17013 2.51942 7.71909L15.8188 30.4471C16.0437 30.8315 16.2934 31.2083 16.6524 31.4718Z" fill="#00D393"/>
<path d="M21.4561 18.206L25.2351 24.7922C25.2821 24.8743 25.4003 24.8748 25.4481 24.7931L36.541 5.82412C36.5734 5.75939 36.6036 5.69779 36.6318 5.63917C36.9428 4.99294 36.9891 4.18921 36.9891 3.47207C36.8345 2.2355 36.1046 1.3594 35.3277 0.788398C34.3749 0.0881861 33.1421 0 31.9596 0C31.953 0 31.9469 0.00351922 31.9436 0.00923808L21.4564 18.083C21.4343 18.121 21.4342 18.1679 21.4561 18.206Z" fill="#00D393"/>
</svg>
