<svg width="25" height="25" viewBox="0 0 25 25" fill="none" xmlns="http://www.w3.org/2000/svg">
<path d="M8.51648 18.956H0.549451C0.245997 18.956 0 18.71 0 18.4066V0.549451C0 0.245997 0.245997 0 0.549451 0H24.4506C24.754 0 25 0.245998 25 0.549451V5.21978C25 5.52323 24.754 5.76923 24.4506 5.76923H9.89011C9.58666 5.76923 9.34066 6.01523 9.34066 6.31868V9.06593C9.34066 9.36939 9.58666 9.61539 9.89011 9.61539H24.4506C24.754 9.61539 25 9.86138 25 10.1648V14.8352C25 15.1386 24.754 15.3846 24.4506 15.3846H9.61539C9.31193 15.3846 9.06593 15.6306 9.06593 15.9341V18.4066C9.06593 18.71 8.81994 18.956 8.51648 18.956Z" fill="white"/>
<path d="M0 24.4506V21.7033C0 21.3998 0.245997 21.1538 0.54945 21.1538H8.51648C8.81994 21.1538 9.06593 21.3998 9.06593 21.7033V24.4506C9.06593 24.754 8.81994 25 8.51648 25H0.549451C0.245997 25 0 24.754 0 24.4506Z" fill="white"/>
</svg>
