<svg width="40" height="40" viewBox="0 0 40 40" fill="none" xmlns="http://www.w3.org/2000/svg">
<path d="M0 0L3.64023 36L19.9759 40L36.3541 35.995L40 0H0.0028352H0ZM33.2327 33.705L20.0666 36.9225V36.94L20.0326 36.93L19.9986 36.94V36.9225L6.83252 33.705L3.71961 2.945H36.3456L33.2327 33.705ZM26.145 20.71L25.5667 26.435L19.9759 27.765L14.3993 26.44L14.0421 22.915H9.01552L9.71578 29.85L19.9957 32.3575L30.2445 29.85L31.6195 16.295H13.3702L12.9137 11.7725H32.0731L32.5211 7.3575H7.43922L8.79155 20.71H26.145Z" fill="#F96512"/>
</svg>
