<svg width="65" height="13" viewBox="0 0 65 13" fill="none" xmlns="http://www.w3.org/2000/svg">
<path d="M54.0976 0.00541551V2.07842H49.6421V12.9846H47.4142V2.07855H42.8659V0.00541551H54.0976ZM54.5984 11.7483C54.7554 11.7483 54.8926 11.8047 55.0089 11.9178C55.1268 12.0307 55.1855 12.1661 55.1871 12.3238C55.1868 12.4273 55.158 12.5287 55.104 12.6169C55.0509 12.7039 54.9767 12.7761 54.8881 12.8266C54.8006 12.8789 54.7004 12.9061 54.5984 12.9054C54.4352 12.9054 54.2964 12.8489 54.1803 12.7359C54.0641 12.6228 54.0065 12.4859 54.008 12.3238C54.0066 12.1661 54.0641 12.0307 54.1803 11.9178C54.2964 11.8047 54.4352 11.7483 54.5984 11.7483ZM10.4426 12.9846L2.22792 2.77425V12.9793H0V0H2.78471L13.1631 12.8875L13.1632 2.07855L13.1623 0.00541551H24.3939V2.07842H15.391V5.41337H22.6312V7.4865H15.391V10.9116H24.394V12.9846H10.4426ZM31.534 7.46673L32.9941 9.28194L30.0023 13H27.0786L31.534 7.46673ZM30.0023 0.010831L33.7718 4.6921L37.5294 0.0251884L40.4449 0.0207805L35.2314 6.50491L40.4534 12.9901H37.5294L27.0869 0.010831H30.0023ZM58.4008 7.43764H59.3879V11.2411C59.3865 11.5906 59.3108 11.8894 59.1631 12.1409C59.0136 12.3922 58.8067 12.5841 58.5412 12.7195C58.277 12.8533 57.9675 12.9218 57.6158 12.9218C57.2942 12.9218 57.0061 12.8639 56.7494 12.7508C56.4927 12.6377 56.2891 12.4681 56.1396 12.245C55.9885 12.0219 55.9145 11.7437 55.9145 11.4106H56.9034C56.9049 11.5563 56.9381 11.6826 57.0014 11.7884C57.0638 11.8928 57.155 11.977 57.2641 12.0307C57.3772 12.0874 57.5072 12.1156 57.6534 12.1156C57.8121 12.1156 57.9479 12.0829 58.0581 12.0159C58.1681 11.9504 58.2528 11.8523 58.3117 11.7214C58.369 11.592 58.3992 11.4314 58.4008 11.241V7.43764ZM63.4498 8.92502C63.4258 8.69454 63.3201 8.51444 63.1359 8.38661C62.9502 8.25714 62.7102 8.19329 62.4158 8.19329C62.2092 8.19329 62.031 8.22453 61.8831 8.28548C61.7352 8.34795 61.6205 8.4312 61.5419 8.53686C61.4635 8.6424 61.4242 8.76293 61.4211 8.89832C61.4211 9.01129 61.4483 9.10952 61.5011 9.19126C61.5558 9.27695 61.6297 9.34877 61.7169 9.40108C61.8117 9.46065 61.913 9.50904 62.0189 9.54528C62.1305 9.58395 62.2424 9.61669 62.354 9.64352L62.8687 9.76996C63.0756 9.81757 63.2764 9.88142 63.468 9.96328C63.6596 10.0436 63.8333 10.1463 63.9857 10.2697C64.1382 10.3931 64.259 10.5419 64.348 10.7159C64.437 10.89 64.4824 11.0937 64.4824 11.3287C64.4824 11.6455 64.4009 11.9237 64.2363 12.1646C64.0718 12.4042 63.8348 12.5916 63.5238 12.727C63.2144 12.8608 62.84 12.9292 62.3993 12.9292C61.9736 12.9292 61.6023 12.8637 61.2897 12.7329C60.9759 12.6035 60.7313 12.413 60.5546 12.1631C60.378 11.9132 60.283 11.6083 60.2694 11.2499H61.2477C61.2612 11.4373 61.3216 11.5935 61.4242 11.7199C61.5283 11.8449 61.6642 11.937 61.8303 11.9995C61.9978 12.0606 62.1849 12.0918 62.3917 12.0918C62.6076 12.0918 62.7978 12.0591 62.9623 11.9951C63.1253 11.9311 63.2536 11.842 63.3457 11.7258C63.4393 11.6112 63.4862 11.476 63.4877 11.3213C63.4862 11.18 63.4437 11.0625 63.3622 10.9702C63.2793 10.878 63.1645 10.8007 63.018 10.7382C62.8703 10.6757 62.6982 10.6192 62.5019 10.5702L61.877 10.4125C61.4256 10.2979 61.068 10.124 60.8068 9.89036C60.5442 9.65687 60.4143 9.34755 60.4143 8.95927C60.4143 8.64102 60.5019 8.3613 60.6785 8.12176C60.8536 7.88247 61.0937 7.69645 61.397 7.56409C61.7018 7.43021 62.0462 7.36472 62.4294 7.36472C62.8189 7.36472 63.16 7.43021 63.4544 7.56409C63.7486 7.69645 63.9797 7.88083 64.1471 8.11584C64.3148 8.35097 64.4024 8.62011 64.4069 8.92502H63.4498Z" fill="white"/>
</svg>
