<svg width="32" height="24" viewBox="0 0 32 24" fill="none" xmlns="http://www.w3.org/2000/svg">
<path d="M6.92605 0C6.27675 0 5.62744 3.46452e-07 4.95663 0.0219144C4.28541 0.0434226 3.65761 0.043422 3.07324 0.065336C2.48887 0.0868442 1.94791 0.0868438 1.42847 0.108352C0.930535 0.12986 0.584374 0.129861 0.2163 0.129861C0.0649308 0.129861 0 0.2163 0 0.368075V22.6392C0 22.834 0.0864392 22.9209 0.259722 22.9209H4.45869C4.61006 22.8989 4.71842 22.7691 4.6965 22.6177V15.6702C5.10759 15.6702 5.41074 15.6702 5.62744 15.6917C5.84374 15.7132 6.1899 15.7132 6.70934 15.7132C8.48438 15.7132 10.1076 15.5184 11.5791 14.9774C12.9861 14.458 14.1983 13.549 15.0639 12.3368C15.9296 11.1248 16.3625 9.58807 16.3625 7.72673C16.3625 6.75277 16.1896 5.82223 15.8649 4.91321C15.5209 3.98709 14.982 3.14567 14.2847 2.44585C13.4616 1.64625 12.4709 1.0399 11.3843 0.670813C10.1722 0.2163 8.70068 0 6.92605 0ZM7.40897 4.26309C8.18002 4.2777 8.93078 4.41243 9.63122 4.6965C10.259 4.93471 10.7785 5.36772 11.1465 5.93018C11.4917 6.51229 11.6644 7.18051 11.6445 7.85699C11.6445 8.80903 11.4278 9.54518 10.9732 10.0861C10.4968 10.6271 9.89094 11.0386 9.19862 11.2334C8.39754 11.4931 7.55344 11.6226 6.70934 11.6226H5.56211C5.30238 11.6226 5.02156 11.601 4.71841 11.5795V4.30732C4.86978 4.28541 5.17293 4.2639 5.60593 4.28582C6.01702 4.2639 6.51455 4.2639 7.07742 4.2639C7.18834 4.2612 7.29886 4.26093 7.40897 4.26309ZM25.5611 5.36813C24.0243 5.36813 22.7472 5.60593 21.7302 6.12538C20.7997 6.55838 19.9986 7.2507 19.4576 8.11631C18.9816 8.91739 18.7215 9.8045 18.7215 10.7354C18.703 11.5011 18.874 12.2595 19.2194 12.9431C19.6242 13.671 20.1862 14.2994 20.8646 14.7826C21.8167 15.4338 22.8499 15.9577 23.9378 16.341C24.9982 16.7521 25.7125 17.0767 26.059 17.3579C26.4052 17.6396 26.5785 17.9208 26.5785 18.2239C26.5785 18.6135 26.3403 18.9816 25.9941 19.133C25.6045 19.3278 25.0201 19.4361 24.1975 19.4361C23.3319 19.4361 22.4659 19.3278 21.6433 19.1115C20.6988 18.9005 19.7933 18.5427 18.9597 18.0511C18.8948 18.0077 18.8298 17.9861 18.7649 18.0296C18.7 18.0726 18.6785 18.159 18.6785 18.2239V21.9899C18.657 22.1632 18.7649 22.3146 18.9167 22.401C19.6185 22.7289 20.3609 22.9619 21.1243 23.0937C22.0983 23.2885 23.0718 23.375 24.0673 23.375C25.6256 23.375 26.9246 23.1372 27.985 22.6826C28.959 22.2931 29.8031 21.6222 30.409 20.7562C30.9764 19.9049 31.2709 18.9008 31.2531 17.8778C31.2744 17.105 31.1034 16.339 30.7555 15.6486C30.344 14.9125 29.7597 14.3066 29.0454 13.8521C28.0005 13.1959 26.8818 12.6655 25.7125 12.2719C25.1903 12.0557 24.6775 11.8174 24.1756 11.5576C23.8944 11.4063 23.6347 11.2115 23.4399 10.9732C23.31 10.8 23.2236 10.6056 23.2236 10.4108C23.2236 10.216 23.2885 9.9997 23.3965 9.82641C23.5482 9.61011 23.7861 9.45834 24.0673 9.39341C24.4788 9.28546 24.9333 9.22012 25.3659 9.24163C26.1885 9.24163 26.9892 9.34999 27.7902 9.52327C28.5264 9.67464 29.2187 9.91285 29.868 10.2594C29.9544 10.3024 30.0628 10.3024 30.2576 10.2594C30.2914 10.2344 30.3188 10.2017 30.3377 10.164C30.3565 10.1264 30.3662 10.0848 30.3659 10.0427V6.51496C30.3659 6.42812 30.344 6.34168 30.3225 6.25524C30.2791 6.1688 30.1927 6.08195 30.1062 6.06045C29.5093 5.81646 28.8838 5.64915 28.2447 5.56251C27.356 5.43311 26.4592 5.36842 25.5611 5.36813Z" fill="#31A8FF"/>
</svg>
