<svg width="50" height="30" viewBox="0 0 50 30" fill="none" xmlns="http://www.w3.org/2000/svg">
<path fill-rule="evenodd" clip-rule="evenodd" d="M12.5 10C14.1667 3.33333 18.3336 0 25 0C35 0 36.25 7.5 41.25 8.75C44.5836 9.58361 47.5 8.33361 50 5C48.3336 11.6664 44.1664 15 37.5 15C27.5 15 26.25 7.5 21.25 6.25C17.9164 5.41667 15 6.66667 12.5 10ZM0 25C1.66667 18.3336 5.83333 15 12.5 15C22.5 15 23.75 22.5 28.75 23.75C32.0836 24.5836 35 23.3336 37.5 20C35.8336 26.6664 31.6664 30 25 30C15 30 13.75 22.5 8.75 21.25C5.41667 20.4164 2.5 21.6664 0 25Z" fill="url(#paint0_linear_371_37)"/>
<defs>
<linearGradient id="paint0_linear_371_37" x1="13.4722" y1="-2.46398e-07" x2="34.8611" y2="30.9722" gradientUnits="userSpaceOnUse">
<stop stop-color="#32B1C1"/>
<stop offset="1" stop-color="#14C6B7"/>
</linearGradient>
</defs>
</svg>
