<svg width="26" height="25" viewBox="0 0 26 25" fill="none" xmlns="http://www.w3.org/2000/svg">
<path fill-rule="evenodd" clip-rule="evenodd" d="M17.7778 0.353682C17.7778 0.158349 17.6194 0 17.4241 0H8.71708C8.52175 0 8.3634 0.158349 8.3634 0.353682V6.74141C8.3634 6.93675 8.52175 7.0951 8.71709 7.0951H17.4241C17.6194 7.0951 17.7778 6.93675 17.7778 6.74141V0.353682ZM8.43773 11.2936C8.43773 11.0982 8.27938 10.9399 8.08405 10.9399H0.915205C0.719872 10.9399 0.561523 11.0982 0.561523 11.2936V24.6464C0.561523 24.8417 0.719872 25.0001 0.915205 25.0001H25.2078C25.4032 25.0001 25.5615 24.8417 25.5615 24.6464V11.2936C25.5615 11.0982 25.4032 10.9399 25.2078 10.9399H18.2985C18.1031 10.9399 17.9448 11.0982 17.9448 11.2936V17.5884C17.9448 17.7838 17.7864 17.9421 17.5911 17.9421H8.79141C8.59608 17.9421 8.43773 17.7838 8.43773 17.5884V11.2936Z" fill="white"/>
</svg>
