<svg width="87" height="87" viewBox="0 0 87 87" fill="none" xmlns="http://www.w3.org/2000/svg">
<mask id="mask0_371_27" style="mask-type:alpha" maskUnits="userSpaceOnUse" x="0" y="0" width="87" height="87">
<path fill-rule="evenodd" clip-rule="evenodd" d="M61.1614 85.8815C61.8478 86.1504 62.5818 86.2745 63.3179 86.246C64.054 86.2176 64.7764 86.0372 65.4402 85.7162L83.1976 77.127C84.112 76.6844 84.8837 75.9914 85.4237 75.1276C85.9637 74.2638 86.2501 73.2643 86.25 72.2441V14.0052C86.2502 12.9849 85.9639 11.9853 85.4238 11.1213C84.8838 10.2574 84.1122 9.56424 83.1976 9.12168L65.4402 0.533811C64.4368 0.0485083 63.3082 -0.111276 62.2104 0.0765713C61.1127 0.264419 60.1002 0.790609 59.3131 1.58232L25.3186 32.7571L10.5119 21.4586C9.8439 20.949 9.01955 20.6905 8.1818 20.7279C7.34405 20.7653 6.54571 21.0961 5.9252 21.6631L1.17607 26.0055C0.805968 26.3438 0.510202 26.7561 0.307691 27.216C0.10518 27.6758 0.00038158 28.1731 1.04009e-06 28.676C-0.0003795 29.1789 0.103666 29.6763 0.305481 30.1364C0.507296 30.5966 0.802438 31.0093 1.17203 31.3483L14.0131 43.1243L1.1727 54.9011C0.803313 55.24 0.508348 55.6528 0.306658 56.1128C0.104968 56.5729 0.000990703 57.0702 0.0013712 57.573C0.0017517 58.0758 0.106482 58.5729 0.308868 59.0327C0.511254 59.4925 0.806843 59.9047 1.17674 60.2432L5.92587 64.5855C6.54631 65.1526 7.3446 65.4836 8.18235 65.5211C9.0201 65.5586 9.84449 65.3002 10.5126 64.7907L25.3193 53.4929L59.3138 84.667C59.8399 85.1957 60.4686 85.6092 61.1614 85.8815ZM64.7004 23.4431L38.907 43.1243L64.701 62.8062L64.7004 23.4431Z" fill="white"/>
</mask>
<g mask="url(#mask0_371_27)">
<path d="M83.2001 9.13593L65.4286 0.533837C64.4249 0.0479126 63.2957 -0.11221 62.1974 0.075651C61.0991 0.263512 60.0862 0.790058 59.2988 1.58234L1.12202 54.9011C0.752353 55.2399 0.457139 55.6526 0.255271 56.1127C0.0534024 56.5728 -0.0506725 57.0702 -0.0502919 57.573C-0.0499114 58.0759 0.0549163 58.5731 0.257481 59.0329C0.460046 59.4927 0.755884 59.9049 1.12606 60.2432L5.87788 64.5855C6.4985 65.1533 7.29733 65.4847 8.13568 65.5222C8.97404 65.5597 9.79898 65.3009 10.4673 64.7908L80.5257 11.3664C82.876 9.57416 86.2519 11.2594 86.2519 14.2247V14.0174C86.2519 12.9974 85.9655 11.9981 85.4256 11.1344C84.8858 10.2708 84.1144 9.57849 83.2001 9.13593Z" fill="#0065A9"/>
<g filter="url(#filter0_d_371_27)">
<path d="M83.2001 77.1137L65.4286 85.7144C64.425 86.2005 63.2959 86.3609 62.1976 86.1732C61.0994 85.9856 60.0863 85.4593 59.2988 84.6673L1.12202 31.3479C0.752353 31.009 0.457139 30.5964 0.255271 30.1363C0.0534024 29.6762 -0.0506725 29.1788 -0.0502919 28.6759C-0.0499114 28.173 0.0549163 27.6758 0.257481 27.216C0.460046 26.7562 0.755884 26.344 1.12606 26.0058L5.87788 21.6634C6.4985 21.0956 7.29733 20.7642 8.13568 20.7267C8.97404 20.6892 9.79898 20.948 10.4673 21.4582L80.5257 74.8819C82.876 76.6748 86.2519 74.9896 86.2519 72.0242V72.2315C86.2519 73.2515 85.9655 74.2508 85.4256 75.1145C84.8858 75.9782 84.1144 76.6711 83.2001 77.1137Z" fill="#007ACC"/>
</g>
<g filter="url(#filter1_d_371_27)">
<path d="M65.4303 85.7163C64.4262 86.2013 63.297 86.3608 62.1988 86.1729C61.1007 85.9849 60.0877 85.4588 59.2998 84.6671C61.2889 86.6666 64.6904 85.2503 64.6904 82.4224V3.82572C64.6904 0.997872 61.2889 -0.418425 59.2998 1.58173C60.0877 0.790059 61.1007 0.263896 62.1988 0.0759494C63.297 -0.111998 64.4262 0.0475505 65.4303 0.532546L83.1984 9.12245C84.1134 9.56472 84.8855 10.2577 85.4258 11.1217C85.9662 11.9857 86.2529 12.9855 86.2529 14.006V72.2442C86.2529 73.2647 85.9662 74.2645 85.4258 75.1285C84.8855 75.9925 84.1134 76.6855 83.1984 77.1277L65.4303 85.7163Z" fill="#1F9CF0"/>
</g>
<path opacity="0.25" fill-rule="evenodd" clip-rule="evenodd" d="M61.1115 85.8816C61.7977 86.1504 62.5317 86.2744 63.2676 86.246C64.0036 86.2176 64.7259 86.0373 65.3896 85.7163L83.1469 77.1271C84.0615 76.6845 84.8332 75.9914 85.3732 75.1274C85.9132 74.2635 86.1996 73.2639 86.1994 72.2435V14.0054C86.1996 12.985 85.9132 11.9854 85.3732 11.1214C84.8332 10.2575 84.0615 9.56436 83.1469 9.1218L65.3896 0.533933C64.3862 0.0486304 63.2575 -0.111154 62.1598 0.0766934C61.0621 0.264541 60.0496 0.790732 59.2625 1.58244L25.268 32.7572L10.4613 21.4594C9.79328 20.9498 8.96893 20.6913 8.13118 20.7287C7.29343 20.7661 6.49509 21.0969 5.87458 21.6639L1.12545 26.0063C0.755441 26.3447 0.459758 26.757 0.257306 27.2168C0.0548541 27.6767 -0.0499114 28.1739 -0.0502919 28.6768C-0.0506724 29.1796 0.0533404 29.677 0.255096 30.1372C0.456852 30.5973 0.75191 31.0101 1.12141 31.3491L13.9625 43.1244L1.12208 54.9005C0.752492 55.2394 0.45735 55.6522 0.255535 56.1123C0.0537199 56.5725 -0.0503253 57.0699 -0.0499448 57.5728C-0.0495642 58.0757 0.0552337 58.5729 0.257745 59.0328C0.460256 59.4926 0.756022 59.9049 1.12612 60.2433L5.87525 64.5856C6.49569 65.1527 7.29398 65.4837 8.13173 65.5212C8.96948 65.5587 9.79388 65.3003 10.462 64.7909L25.2693 53.4923L59.2638 84.6671C59.7898 85.1957 60.4189 85.6092 61.1115 85.8816ZM64.6504 23.4426L38.8563 43.1244L64.6504 62.8056V23.4426Z" fill="url(#paint0_linear_371_27)"/>
</g>
<defs>
<filter id="filter0_d_371_27" x="-3.40921" y="17.3642" width="93.0201" height="72.2442" filterUnits="userSpaceOnUse" color-interpolation-filters="sRGB">
<feFlood flood-opacity="0" result="BackgroundImageFix"/>
<feColorMatrix in="SourceAlpha" type="matrix" values="0 0 0 0 0 0 0 0 0 0 0 0 0 0 0 0 0 0 127 0" result="hardAlpha"/>
<feOffset/>
<feGaussianBlur stdDeviation="1.67946"/>
<feColorMatrix type="matrix" values="0 0 0 0 0 0 0 0 0 0 0 0 0 0 0 0 0 0 0.25 0"/>
<feBlend mode="overlay" in2="BackgroundImageFix" result="effect1_dropShadow_371_27"/>
<feBlend mode="normal" in="SourceGraphic" in2="effect1_dropShadow_371_27" result="shape"/>
</filter>
<filter id="filter1_d_371_27" x="55.9409" y="-3.35965" width="33.671" height="92.9681" filterUnits="userSpaceOnUse" color-interpolation-filters="sRGB">
<feFlood flood-opacity="0" result="BackgroundImageFix"/>
<feColorMatrix in="SourceAlpha" type="matrix" values="0 0 0 0 0 0 0 0 0 0 0 0 0 0 0 0 0 0 127 0" result="hardAlpha"/>
<feOffset/>
<feGaussianBlur stdDeviation="1.67946"/>
<feColorMatrix type="matrix" values="0 0 0 0 0 0 0 0 0 0 0 0 0 0 0 0 0 0 0.25 0"/>
<feBlend mode="overlay" in2="BackgroundImageFix" result="effect1_dropShadow_371_27"/>
<feBlend mode="normal" in="SourceGraphic" in2="effect1_dropShadow_371_27" result="shape"/>
</filter>
<linearGradient id="paint0_linear_371_27" x1="43.0745" y1="-0.00115737" x2="43.0745" y2="86.25" gradientUnits="userSpaceOnUse">
<stop stop-color="white"/>
<stop offset="1" stop-color="white" stop-opacity="0"/>
</linearGradient>
</defs>
</svg>
