<svg width="30" height="30" viewBox="0 0 30 30" fill="none" xmlns="http://www.w3.org/2000/svg">
<path d="M25.6296 4.36508C24.2475 2.97597 22.6012 1.87459 20.7868 1.12516C18.9725 0.37574 17.0263 -0.00672015 15.0618 8.93542e-05C6.83061 8.93542e-05 0.122068 6.67507 0.122068 14.865C0.122068 17.49 0.815535 20.04 2.11202 22.29L0.00146484 30L7.91604 27.93C10.102 29.115 12.5593 29.745 15.0618 29.745C23.2929 29.745 30.0015 23.07 30.0015 14.88C30.0015 10.9051 28.4487 7.17007 25.6296 4.36508ZM15.0618 27.225C12.8306 27.225 10.6447 26.625 8.73011 25.5L8.27785 25.23L3.57433 26.46L4.82559 21.9L4.52408 21.435C3.2845 19.4655 2.6263 17.1889 2.62458 14.865C2.62458 8.05507 8.20247 2.50508 15.0467 2.50508C18.3633 2.50508 21.4839 3.79508 23.8206 6.13507C24.9776 7.28101 25.8945 8.64406 26.5181 10.1452C27.1418 11.6463 27.4598 13.2557 27.4537 14.88C27.4839 21.69 21.906 27.225 15.0618 27.225ZM21.8758 17.985C21.4989 17.805 19.6598 16.905 19.3281 16.77C18.9814 16.65 18.7402 16.59 18.4839 16.95C18.2276 17.325 17.5191 18.165 17.308 18.405C17.0969 18.66 16.8708 18.69 16.4939 18.495C16.117 18.315 14.911 17.91 13.4939 16.65C12.3783 15.66 11.6397 14.445 11.4135 14.07C11.2025 13.695 11.3834 13.5 11.5794 13.305C11.7452 13.14 11.9562 12.8701 12.1371 12.6601C12.318 12.4501 12.3934 12.2851 12.514 12.0451C12.6346 11.7901 12.5743 11.5801 12.4839 11.4001C12.3934 11.2201 11.6397 9.39006 11.3381 8.64006C11.0366 7.92007 10.7201 8.01007 10.4939 7.99507H9.77031C9.51403 7.99507 9.12207 8.08507 8.77533 8.46006C8.44368 8.83506 7.47885 9.73506 7.47885 11.5651C7.47885 13.3951 8.82056 15.165 9.00146 15.405C9.18237 15.66 11.6397 19.41 15.3783 21.015C16.2678 21.405 16.9613 21.63 17.504 21.795C18.3934 22.08 19.2075 22.035 19.8557 21.945C20.5794 21.84 22.0718 21.045 22.3733 20.175C22.6899 19.305 22.6899 18.57 22.5844 18.405C22.4789 18.24 22.2527 18.165 21.8758 17.985Z" fill="#61FFB3"/>
</svg>
