<svg width="86" height="74" viewBox="0 0 86 74" fill="none" xmlns="http://www.w3.org/2000/svg">
<mask id="path-1-outside-1_379_591" maskUnits="userSpaceOnUse" x="-2" y="-1" width="90" height="77" fill="black">
<rect fill="white" x="-2" y="-1" width="90" height="77"/>
<path d="M11.6073 53.1205L0.260725 39.5677L11.6073 25.9518H29.0683L17.7218 39.5677L29.0683 53.1205H11.6073ZM58.1955 0.800363L41.4909 73.4812H28.0642L44.8318 0.800363H58.1955ZM56.7717 25.9518H74.2328L85.5793 39.5677L74.2328 53.1205H56.7717L68.1183 39.5677L56.7717 25.9518Z"/>
</mask>
<path d="M11.6073 53.1205L10.4235 54.1115L10.8863 54.6643H11.6073V53.1205ZM0.260725 39.5677L-0.925301 38.5793L-1.75084 39.57L-0.923041 40.5587L0.260725 39.5677ZM11.6073 25.9518V24.408H10.8841L10.4212 24.9635L11.6073 25.9518ZM29.0683 25.9518L30.2543 26.9402L32.3645 24.408H29.0683V25.9518ZM17.7218 39.5677L16.5357 38.5793L15.7102 39.57L16.538 40.5587L17.7218 39.5677ZM29.0683 53.1205V54.6643H32.3743L30.2521 52.1294L29.0683 53.1205ZM12.791 52.1294L1.44449 38.5766L-0.923041 40.5587L10.4235 54.1115L12.791 52.1294ZM1.44675 40.556L12.7933 26.9402L10.4212 24.9635L-0.925301 38.5793L1.44675 40.556ZM11.6073 27.4957H29.0683V24.408H11.6073V27.4957ZM27.8823 24.9635L16.5357 38.5793L18.9078 40.556L30.2543 26.9402L27.8823 24.9635ZM16.538 40.5587L27.8845 54.1115L30.2521 52.1294L18.9055 38.5766L16.538 40.5587ZM29.0683 51.5766H11.6073V54.6643H29.0683V51.5766ZM58.1955 0.800363L59.7001 1.14618L60.1344 -0.743497H58.1955V0.800363ZM41.4909 73.4812V75.025H42.7202L42.9955 73.827L41.4909 73.4812ZM28.0641 73.4812L26.5598 73.1341L26.1236 75.025H28.0641V73.4812ZM44.8318 0.800363V-0.743497H43.6036L43.3275 0.453307L44.8318 0.800363ZM56.6909 0.454546L39.9862 73.1354L42.9955 73.827L59.7001 1.14618L56.6909 0.454546ZM41.4909 71.9373H28.0641V75.025H41.4909V71.9373ZM29.5685 73.8282L46.3361 1.14742L43.3275 0.453307L26.5598 73.1341L29.5685 73.8282ZM44.8318 2.34422H58.1955V-0.743497H44.8318V2.34422ZM56.7718 25.9518V24.408H53.4755L55.5857 26.9402L56.7718 25.9518ZM74.2328 25.9518L75.4188 24.9635L74.9559 24.408H74.2328V25.9518ZM85.5793 39.5677L86.7631 40.5587L87.5909 39.57L86.7654 38.5793L85.5793 39.5677ZM74.2328 53.1205V54.6643H74.9538L75.4166 54.1115L74.2328 53.1205ZM56.7718 53.1205L55.588 52.1294L53.4657 54.6643H56.7718V53.1205ZM68.1183 39.5677L69.302 40.5587L70.1298 39.57L69.3043 38.5793L68.1183 39.5677ZM56.7718 27.4957H74.2328V24.408H56.7718V27.4957ZM73.0468 26.9402L84.3933 40.556L86.7654 38.5793L75.4188 24.9635L73.0468 26.9402ZM84.3956 38.5766L73.049 52.1294L75.4166 54.1115L86.7631 40.5587L84.3956 38.5766ZM74.2328 51.5766H56.7718V54.6643H74.2328V51.5766ZM57.9555 54.1115L69.302 40.5587L66.9345 38.5766L55.588 52.1294L57.9555 54.1115ZM69.3043 38.5793L57.9578 24.9635L55.5857 26.9402L66.9323 40.556L69.3043 38.5793Z" fill="url(#paint0_linear_379_591)" mask="url(#path-1-outside-1_379_591)"/>
<defs>
<linearGradient id="paint0_linear_379_591" x1="43" y1="-2" x2="43" y2="80.1258" gradientUnits="userSpaceOnUse">
<stop stop-color="#F33C94"/>
<stop offset="1" stop-color="#A24DD7"/>
</linearGradient>
</defs>
</svg>
