<svg width="44" height="44" viewBox="0 0 44 44" fill="none" xmlns="http://www.w3.org/2000/svg">
<path d="M2 21.0476V13.2554C2 11.2471 3.62806 9.61905 5.63637 9.61905H16.2857M2 21.0476V38.3636C2 40.3719 3.62806 42 5.63636 42H38.3636C40.3719 42 42 40.3719 42 38.3636V21.0476M2 21.0476L2.27968 21.2714C5.18116 23.5926 8.78624 24.8571 12.502 24.8571H31.498C35.2138 24.8571 38.8188 23.5926 41.7203 21.2714L42 21.0476M42 21.0476V13.2554C42 11.2471 40.3719 9.61905 38.3636 9.61905H29.619M16.2857 9.61905V5.63636C16.2857 3.62805 17.9138 2 19.9221 2H25.9827C27.991 2 29.619 3.62806 29.619 5.63636V9.61905M16.2857 9.61905H29.619" stroke="white" stroke-width="4" stroke-linecap="round"/>
</svg>
